<mxfile host="app.diagrams.net" agent="Mozilla/5.0 (Windows NT 10.0; Win64; x64) AppleWebKit/537.36 (KHTML, like Gecko) Chrome/130.0.0.0 Safari/537.36" version="24.8.4">
  <diagram id="C5RBs43oDa-KdzZeNtuy" name="Page-1">
    <mxGraphModel dx="1221" dy="1936" grid="1" gridSize="10" guides="1" tooltips="1" connect="1" arrows="1" fold="1" page="1" pageScale="1" pageWidth="827" pageHeight="1169" math="0" shadow="0">
      <root>
        <mxCell id="WIyWlLk6GJQsqaUBKTNV-0" />
        <mxCell id="WIyWlLk6GJQsqaUBKTNV-1" parent="WIyWlLk6GJQsqaUBKTNV-0" />
        <mxCell id="HekbxRHvRh67s_a0WrJ--14" value="" style="group" vertex="1" connectable="0" parent="WIyWlLk6GJQsqaUBKTNV-1">
          <mxGeometry x="50" y="-1010" width="330" height="610" as="geometry" />
        </mxCell>
        <mxCell id="WIyWlLk6GJQsqaUBKTNV-2" value="" style="rounded=0;html=1;jettySize=auto;orthogonalLoop=1;fontSize=11;endArrow=block;endFill=0;endSize=8;strokeWidth=1;shadow=0;labelBackgroundColor=none;edgeStyle=orthogonalEdgeStyle;" parent="HekbxRHvRh67s_a0WrJ--14" source="WIyWlLk6GJQsqaUBKTNV-3" target="WIyWlLk6GJQsqaUBKTNV-6" edge="1">
          <mxGeometry relative="1" as="geometry" />
        </mxCell>
        <mxCell id="WIyWlLk6GJQsqaUBKTNV-3" value="发送mq" style="rounded=1;whiteSpace=wrap;html=1;fontSize=12;glass=0;strokeWidth=1;shadow=0;" parent="HekbxRHvRh67s_a0WrJ--14" vertex="1">
          <mxGeometry y="300" width="120" height="40" as="geometry" />
        </mxCell>
        <mxCell id="WIyWlLk6GJQsqaUBKTNV-5" value="No" style="edgeStyle=orthogonalEdgeStyle;rounded=0;html=1;jettySize=auto;orthogonalLoop=1;fontSize=11;endArrow=block;endFill=0;endSize=8;strokeWidth=1;shadow=0;labelBackgroundColor=none;" parent="HekbxRHvRh67s_a0WrJ--14" source="WIyWlLk6GJQsqaUBKTNV-6" target="WIyWlLk6GJQsqaUBKTNV-7" edge="1">
          <mxGeometry y="10" relative="1" as="geometry">
            <mxPoint as="offset" />
          </mxGeometry>
        </mxCell>
        <mxCell id="HekbxRHvRh67s_a0WrJ--13" value="" style="edgeStyle=orthogonalEdgeStyle;rounded=0;orthogonalLoop=1;jettySize=auto;html=1;" edge="1" parent="HekbxRHvRh67s_a0WrJ--14" source="WIyWlLk6GJQsqaUBKTNV-6" target="HekbxRHvRh67s_a0WrJ--12">
          <mxGeometry relative="1" as="geometry" />
        </mxCell>
        <mxCell id="WIyWlLk6GJQsqaUBKTNV-6" value="发送结果" style="rhombus;whiteSpace=wrap;html=1;shadow=0;fontFamily=Helvetica;fontSize=12;align=center;strokeWidth=1;spacing=6;spacingTop=-4;" parent="HekbxRHvRh67s_a0WrJ--14" vertex="1">
          <mxGeometry x="10" y="400" width="100" height="80" as="geometry" />
        </mxCell>
        <mxCell id="HekbxRHvRh67s_a0WrJ--8" style="edgeStyle=orthogonalEdgeStyle;rounded=0;orthogonalLoop=1;jettySize=auto;html=1;entryX=1;entryY=0.5;entryDx=0;entryDy=0;" edge="1" parent="HekbxRHvRh67s_a0WrJ--14" source="WIyWlLk6GJQsqaUBKTNV-7" target="WIyWlLk6GJQsqaUBKTNV-3">
          <mxGeometry relative="1" as="geometry">
            <Array as="points">
              <mxPoint x="270" y="320" />
            </Array>
          </mxGeometry>
        </mxCell>
        <mxCell id="HekbxRHvRh67s_a0WrJ--9" value="重试" style="edgeLabel;html=1;align=center;verticalAlign=middle;resizable=0;points=[];" vertex="1" connectable="0" parent="HekbxRHvRh67s_a0WrJ--8">
          <mxGeometry x="-0.0853" y="1" relative="1" as="geometry">
            <mxPoint as="offset" />
          </mxGeometry>
        </mxCell>
        <mxCell id="WIyWlLk6GJQsqaUBKTNV-7" value="发送失败重试" style="rounded=1;whiteSpace=wrap;html=1;fontSize=12;glass=0;strokeWidth=1;shadow=0;" parent="HekbxRHvRh67s_a0WrJ--14" vertex="1">
          <mxGeometry x="210" y="420" width="120" height="40" as="geometry" />
        </mxCell>
        <mxCell id="HekbxRHvRh67s_a0WrJ--5" value="" style="edgeStyle=orthogonalEdgeStyle;rounded=0;orthogonalLoop=1;jettySize=auto;html=1;" edge="1" parent="HekbxRHvRh67s_a0WrJ--14" source="HekbxRHvRh67s_a0WrJ--0" target="HekbxRHvRh67s_a0WrJ--1">
          <mxGeometry relative="1" as="geometry" />
        </mxCell>
        <mxCell id="HekbxRHvRh67s_a0WrJ--0" value="构建消息体" style="rounded=1;whiteSpace=wrap;html=1;fontSize=12;glass=0;strokeWidth=1;shadow=0;" vertex="1" parent="HekbxRHvRh67s_a0WrJ--14">
          <mxGeometry width="120" height="40" as="geometry" />
        </mxCell>
        <mxCell id="HekbxRHvRh67s_a0WrJ--6" value="" style="edgeStyle=orthogonalEdgeStyle;rounded=0;orthogonalLoop=1;jettySize=auto;html=1;" edge="1" parent="HekbxRHvRh67s_a0WrJ--14" source="HekbxRHvRh67s_a0WrJ--1" target="HekbxRHvRh67s_a0WrJ--2">
          <mxGeometry relative="1" as="geometry" />
        </mxCell>
        <mxCell id="HekbxRHvRh67s_a0WrJ--1" value="获取rocketMQTemplate" style="rounded=1;whiteSpace=wrap;html=1;fontSize=12;glass=0;strokeWidth=1;shadow=0;" vertex="1" parent="HekbxRHvRh67s_a0WrJ--14">
          <mxGeometry y="90" width="120" height="40" as="geometry" />
        </mxCell>
        <mxCell id="HekbxRHvRh67s_a0WrJ--7" value="" style="edgeStyle=orthogonalEdgeStyle;rounded=0;orthogonalLoop=1;jettySize=auto;html=1;" edge="1" parent="HekbxRHvRh67s_a0WrJ--14" source="HekbxRHvRh67s_a0WrJ--2" target="WIyWlLk6GJQsqaUBKTNV-3">
          <mxGeometry relative="1" as="geometry" />
        </mxCell>
        <mxCell id="HekbxRHvRh67s_a0WrJ--2" value="设置topic、tag、key" style="rounded=1;whiteSpace=wrap;html=1;fontSize=12;glass=0;strokeWidth=1;shadow=0;" vertex="1" parent="HekbxRHvRh67s_a0WrJ--14">
          <mxGeometry y="200" width="120" height="40" as="geometry" />
        </mxCell>
        <mxCell id="HekbxRHvRh67s_a0WrJ--3" style="edgeStyle=orthogonalEdgeStyle;rounded=0;orthogonalLoop=1;jettySize=auto;html=1;exitX=0.5;exitY=1;exitDx=0;exitDy=0;" edge="1" parent="HekbxRHvRh67s_a0WrJ--14" source="HekbxRHvRh67s_a0WrJ--2" target="HekbxRHvRh67s_a0WrJ--2">
          <mxGeometry relative="1" as="geometry" />
        </mxCell>
        <mxCell id="HekbxRHvRh67s_a0WrJ--12" value="返回成功信息" style="rounded=1;whiteSpace=wrap;html=1;shadow=0;strokeWidth=1;spacing=6;spacingTop=-4;" vertex="1" parent="HekbxRHvRh67s_a0WrJ--14">
          <mxGeometry y="550" width="120" height="60" as="geometry" />
        </mxCell>
      </root>
    </mxGraphModel>
  </diagram>
</mxfile>
